<svg xmlns="http://www.w3.org/2000/svg" viewBox="0 0 512 512">
  <!-- Circle -->
  <path fill="#FFFFFF" d="M256 384c-70.7 0-128-57.3-128-128s57.3-128 128-128c17.7 0 34.7 3.6 50.3 10.1l36.3-43.6C309.4 82.2 283.6 72 256 72 150 72 64 158 64 264s86 192 192 192c28.3 0 55.1-6.1 79.5-17.2l-30.8-48.4C291.6 397.6 274.3 384 256 384z"/>
  <!-- Hand -->
  <path fill="#FFFFFF" d="M439 217c1.7-18.1-12.7-33-29.4-33-8.8 0-16.7 4.2-22 10.7l-48.2 57.8c-2.4-1.8-5-3.5-7.6-5-35.1-20.9-46.1-27.1-70.8-39.4-7.8-3.9-10.7-13.4-6.5-21.2 4.1-7.8 13.9-10.8 21.9-6.9 19.3 9.4 46.9 22.1 46.9 22.1 6.5 2.9 14.1-0.2 16.9-6.7 2.8-6.1-0.2-13.3-6.1-16.2 0 0-41.5-18.7-65.7-29.6-7.8-3.5-23.8-9.9-29.6-32.9-4.8-19.1 6.7-38.3 25.4-43 18.7-4.7 38.3 6.7 42.8 25.4 0.9 4 1.2 7.8 0.9 11.2 3.1-4.8 13.5-21.6 24.3-29 11.4-7.8 27.2-4.8 34.6 6.9 7.4 11.7 4.2 26.9-7.1 34.6-2.1 1.4-4.1 2.3-5.9 3 4.2-22.3 26.2-36.9 48.9-32.2 22.3 4.6 36.6 26.8 31.9 48.9-2 9.4-7.4 17.5-14.7 23 20.9 9.2 32.7 32.5 28.1 55.1-4.6 22.3-26.4 36.6-48.9 31.9-1.2-0.2-2.3-0.5-3.4-0.9 5.3 12.3 7 26.2 4.1 40.5-5.9 29.4-32.9 49.3-63 46.6-18.7-1.7-34.9-10.7-44.4-24.1l-36.5-51.5 67.7-81.2z"/>
</svg>
